<svg width="1080" height="1080" viewBox="0 0 1080 1080" fill="none" xmlns="http://www.w3.org/2000/svg">
<mask id="mask0_303_47" style="mask-type:alpha" maskUnits="userSpaceOnUse" x="0" y="0" width="1080" height="1080">
<rect width="1080" height="1080" fill="#FFCD00"/>
</mask>
<g mask="url(#mask0_303_47)">
<rect width="1080" height="1080" fill="#FFCD00"/>
<path d="M202.098 473.2V613.2H249.098V520.4L352.698 613.2H399.898V473.2H352.698V561.2L255.298 473.2H202.098ZM424.168 472.8V613H587.368V580.4H471.368V557.4H582.568V525.4H471.368V504.6H585.168V472.8H424.168ZM710.543 611.4L740.943 529.4H748.943L781.143 611.4H828.543L889.543 473.2H843.143L805.143 565.6L775.143 496.2H714.343L686.943 568.2L648.143 473.2H596.743L658.543 611.4H710.543Z" fill="black"/>
</g>
<path d="M850.182 248C772.493 165.505 662.261 114 540 114C304.727 114 114 304.727 114 540C114 775.273 304.727 966 540 966C775.273 966 966 775.273 966 540C966 452.714 939.748 371.559 894.709 304" stroke="black" stroke-width="35" stroke-linecap="round"/>
</svg>
